<?xml version="1.0" encoding="utf-8"?>
<!-- Generator: Adobe Illustrator 19.1.0, SVG Export Plug-In . SVG Version: 6.00 Build 0)  -->
<svg version="1.1" id="Capa_1" xmlns="http://www.w3.org/2000/svg" xmlns:xlink="http://www.w3.org/1999/xlink" x="0px" y="0px"
	 viewBox="-189 190.8 370.2 370.2" style="enable-background:new -189 190.8 370.2 370.2;" xml:space="preserve">
<style type="text/css">
	.st0{fill:#990012;}
	.st1{fill:#D0D08D;}
</style>
<g>
	<g>
		<path d="M-24.8,263.8l-109.6-17.4c-0.8-0.1-1.7-0.2-2.5-0.2c-7.9,0-14.8,5.9-16,13.7l-10,63.2c-3.2,20.4-0.9,39.4,6.7,54.9
			c7.5,15.4,20,26.7,36.1,32.9l-14,88c-0.2,1.2-0.3,2.2-0.7,2.4c-6,2.1-19.8,0.8-29.5,0.8c-2.3,0-4.1,0-5.4-0.1
			c-1-0.1-1.8-0.1-2.6-0.1c-12,0-15.5,6.4-16.3,11.7c-1.4,8.9,4.4,15.8,14.9,17.4l98.2,15.6c1.4,0.2,2.8,0.3,4.1,0.3
			c8.4,0,14.3-4.7,15.5-12.3c2-12.5-10.4-15.8-14.4-16.9c-7.3-2-25.7-8.5-32.9-11.5c-0.4-0.2-0.1-1.3,0.1-2.7l14-87.8
			c17.4-0.9,32.9-7.9,44.8-20.4c11.9-12.4,19.9-29.7,23.1-49.9l10-63.2C-9.9,273.6-16,265.2-24.8,263.8z M-22.2,280.7l-10,63.2
			c-6,37.7-29.3,61.1-60.9,61.1c0,0-5.5-0.2-5.8,1.3c-3.6,23-15.2,95.7-15.2,95.7c-1.7,10.7,4.3,13.7,5.7,14.3l0,0
			c1.1,0.4,26.3,9.9,35.1,12.2c6.9,1.8,6.6,3.2,6.4,4.6c-0.2,1.1-0.5,3-4.6,3c-0.7,0-1.5-0.1-2.4-0.2l-98.2-15.6
			c-6.4-1-6-3.8-5.8-4.8c0.2-1.3,0.4-2.4,5.5-2.4c0.7,0,1.4,0,2.1,0.1c1.5,0.1,3.4,0.1,5.9,0.1c11.6,0,30.4-0.8,31.2-0.9l0.4,0
			c0.8-0.1,7.8-1.2,9.4-11.6c0,0,11.6-71.7,15.2-95.7c0.3-2-4.3-3-4.3-3c-30.6-9.6-45.8-39.2-39.7-77.2l10-63.2
			c0.4-2.8,3.2-4.8,6-4.3l109.6,17.4C-23.7,275.1-21.7,277.8-22.2,280.7z"/>
		<path class="st0" d="M-42.7,298.8c-12-1.9-49.6,35.4-79.3,30.7c-4.7-0.8-20.1-12.4-21.5-3.7c-5.4,33.7,7.9,63.9,41.7,69.2
			c33.7,5.4,55.7-19.2,61.1-52.9l5.3-33.4C-34.7,304-38,299.5-42.7,298.8z"/>
		<path d="M181,513.6c-0.9-5.3-4.4-11.7-16.3-11.7c-0.8,0-1.7,0-2.6,0.1c-1.3,0.1-3.1,0.1-5.4,0.1c-9.6,0-22.9,0.4-29.5-0.8
			c-0.4-0.1-0.5-1.1-0.7-2.4l-14-88c16.2-6.2,28.6-17.5,36.1-32.9c7.6-15.6,9.9-34.6,6.7-55l-10-63.2c-1.2-7.8-8.1-13.7-16-13.7
			c-0.8,0-1.7,0.1-2.5,0.2L17,263.8c-8.8,1.4-14.9,9.7-13.5,18.6l10,63.2c3.2,20.2,11.2,37.5,23.1,49.9c12,12.5,27.4,19.5,44.8,20.4
			l14,87.8c0.2,1.4,0.5,2.5,0.1,2.7c-8.2,4.3-25.6,9.5-32.9,11.5c-4.1,1.1-16.4,4.4-14.4,16.9c1.2,7.6,7.1,12.3,15.5,12.3
			c1.3,0,2.7-0.1,4.1-0.3l98.2-15.6C176.6,529.3,182.4,522.5,181,513.6z M164.4,520.1l-98.2,15.6c-0.8,0.1-1.6,0.2-2.4,0.2
			c-4.2,0-4.5-1.9-4.6-3c-0.2-1.3-0.4-2.7,6.4-4.6c8.8-2.4,34-11.8,35.1-12.2l0,0c1.5-0.6,7.4-3.6,5.7-14.3c0,0-10.9-68.4-15.2-94.8
			c-0.4-2.3-5.7-2.2-5.7-2.2c-31.6,0-54.9-23.4-60.9-61.1l-10-63.2c-0.5-2.9,1.5-5.5,4.3-6l109.6-17.4c2.8-0.4,5.5,1.6,6,4.3
			l10,63.2c6,38-9.2,67.6-39.7,77.2c0,0-4.7,1.1-4.3,3.6c3.6,24.2,15.3,95,15.3,95c1.6,10.4,8.6,11.5,9.4,11.6l0.4,0
			c0.8,0,19.7,0.9,31.2,0.9c2.5,0,4.5,0,5.9-0.1c0.7,0,1.4-0.1,2.1-0.1c5.1,0,5.3,1.1,5.5,2.4C170.3,516.3,170.8,519.1,164.4,520.1z
			"/>
		<path class="st0" d="M135.7,325.7c-1.4-8.7-16.8,3-21.5,3.7c-29.7,4.7-67.3-32.6-79.3-30.7c-4.7,0.8-8,5.2-7.2,10l5.3,33.4
			c5.4,33.7,27.4,58.2,61.1,52.9C127.8,389.6,141.1,359.5,135.7,325.7z"/>
		<path class="st1" d="M-13,244.7l-27-17c-2.6-1.6-6-0.8-7.6,1.7c-1.6,2.6-0.8,6,1.7,7.6l27,17c0.9,0.6,1.9,0.8,2.9,0.8
			c1.8,0,3.6-0.9,4.7-2.6C-9.6,249.7-10.4,246.3-13,244.7z"/>
		<path class="st1" d="M7.1,254.8c1,0,2-0.3,2.9-0.8l27-17c2.6-1.6,3.3-5,1.7-7.6c-1.6-2.6-5-3.3-7.6-1.7l-27,17
			c-2.6,1.6-3.3,5-1.7,7.6C3.5,253.9,5.3,254.8,7.1,254.8z"/>
		<path class="st1" d="M-4.4,204.8c-3,0-5.5,2.5-5.5,5.5v27c0,3,2.5,5.5,5.5,5.5s5.5-2.5,5.5-5.5v-27C1.1,207.3-1.4,204.8-4.4,204.8
			z"/>
	</g>
</g>
</svg>
